<svg width="204" height="32" viewBox="0 0 204 32" fill="none" xmlns="http://www.w3.org/2000/svg">
<path fill-rule="evenodd" clip-rule="evenodd" d="M10.9769 20.1305C9.71113 18.9507 9 17.3503 9 15.6816C8.99997 14.8553 9.17453 14.037 9.51373 13.2736C9.85294 12.5102 10.3501 11.8165 10.9769 11.2322C11.6037 10.648 12.3479 10.1845 13.1668 9.86827C13.9858 9.55208 14.8636 9.38935 15.75 9.3894H27.0005C28.1939 9.38923 29.3383 8.94723 30.182 8.1606C31.0257 7.37398 31.4997 6.30715 31.4997 5.19478V1H36.0004V5.19478C36.0004 7.41978 35.0522 9.55367 33.3645 11.127C31.6765 12.7003 29.3874 13.5842 27.0005 13.5842H15.75C15.1533 13.5842 14.581 13.8052 14.159 14.1985C13.7371 14.5918 13.5 15.1253 13.5 15.6816C13.5 16.2378 13.7371 16.7713 14.159 17.1647C14.581 17.558 15.1533 17.779 15.75 17.779H27.0005C29.3874 17.779 31.6765 18.6628 33.3645 20.2361C35.0522 21.8095 36.0004 23.9434 36.0004 26.1684V30.363H31.5004V26.1682C31.5004 25.0556 31.0262 23.9887 30.1823 23.2021C29.3385 22.4154 28.194 21.9734 27.0005 21.9734H15.7497C13.9596 21.9734 12.2427 21.3106 10.9769 20.1305ZM26.9997 28.2662V30.3635H15.7497C11.5726 30.3635 7.5666 28.8167 4.61296 26.0634C1.65933 23.3101 9.03761e-10 19.5757 9.03761e-10 15.682C-2.21554e-05 13.754 0.40734 11.8448 1.19883 10.0636C1.99031 8.28235 3.15042 6.66386 4.61292 5.30054C6.07541 3.93724 7.81165 2.8558 9.7225 2.11798C11.6334 1.38016 13.6814 1.00041 15.7497 1.00041H26.9997V3.0978C26.9997 3.37329 26.9415 3.64607 26.8284 3.90058C26.7152 4.15508 26.5495 4.38632 26.3404 4.5811C26.1315 4.77587 25.8833 4.93035 25.6103 5.03572C25.3373 5.14108 25.0445 5.19527 24.749 5.19519H15.7492C14.2718 5.19517 12.8089 5.4664 11.444 5.9934C10.0791 6.52041 8.8389 7.29284 7.79423 8.26663C6.74957 9.24044 5.92089 10.3965 5.35552 11.6688C4.79015 12.9411 4.49916 14.3048 4.49916 15.682C4.49921 18.4633 5.68449 21.1306 7.79427 23.0972C9.90406 25.0639 12.7655 26.1688 15.7492 26.1688H24.7497C25.0452 26.1688 25.3378 26.223 25.6108 26.3284C25.8836 26.4338 26.1317 26.5883 26.3408 26.783C26.5497 26.9779 26.7154 27.2091 26.8284 27.4635C26.9415 27.718 26.9997 27.9907 26.9997 28.2662Z" fill="white"/>
<path d="M53.328 19.148V15.172H56.996C57.7053 15.172 58.312 15.032 58.816 14.752C59.3387 14.472 59.74 14.08 60.02 13.576C60.3 13.0533 60.44 12.456 60.44 11.784C60.44 11.0747 60.3 10.468 60.02 9.964C59.74 9.44133 59.3387 9.04933 58.816 8.788C58.312 8.508 57.7053 8.368 56.996 8.368H53.328V4.392H56.772C58.508 4.392 59.992 4.68133 61.224 5.26C62.4747 5.83867 63.4267 6.66 64.08 7.724C64.752 8.788 65.088 10.0667 65.088 11.56V12.008C65.088 13.464 64.752 14.7333 64.08 15.816C63.4267 16.88 62.4747 17.7013 61.224 18.28C59.992 18.8587 58.508 19.148 56.772 19.148H53.328ZM49.296 25V4.392H53.888V25H49.296ZM76.969 25V20.464H76.213V15.536C76.213 14.752 76.0264 14.164 75.653 13.772C75.2797 13.38 74.6824 13.184 73.861 13.184C73.4504 13.184 72.909 13.1933 72.237 13.212C71.565 13.2307 70.8744 13.2587 70.165 13.296C69.4557 13.3333 68.8117 13.3707 68.233 13.408V9.628C68.6624 9.59067 69.1664 9.55333 69.745 9.516C70.3237 9.47867 70.921 9.45067 71.537 9.432C72.153 9.41333 72.7317 9.404 73.273 9.404C74.841 9.404 76.157 9.628 77.221 10.076C78.3037 10.524 79.125 11.2053 79.685 12.12C80.245 13.016 80.525 14.1733 80.525 15.592V25H76.969ZM72.069 25.392C70.9677 25.392 69.997 25.196 69.157 24.804C68.3357 24.412 67.6917 23.852 67.225 23.124C66.7584 22.3773 66.525 21.4907 66.525 20.464C66.525 19.344 66.8144 18.4293 67.393 17.72C67.9717 16.992 68.7837 16.46 69.829 16.124C70.8744 15.7693 72.0784 15.592 73.441 15.592H76.717V18.084H73.413C72.629 18.084 72.0224 18.28 71.593 18.672C71.1824 19.0453 70.977 19.5587 70.977 20.212C70.977 20.828 71.1824 21.332 71.593 21.724C72.0224 22.0973 72.629 22.284 73.413 22.284C73.917 22.284 74.365 22.2 74.757 22.032C75.1677 21.8453 75.5037 21.5373 75.765 21.108C76.0264 20.6787 76.1757 20.0813 76.213 19.316L77.277 20.436C77.1837 21.5 76.9224 22.396 76.493 23.124C76.0824 23.852 75.5037 24.412 74.757 24.804C74.029 25.196 73.133 25.392 72.069 25.392ZM84.526 25V9.656H88.082V16.236H87.998C87.998 14.0707 88.4554 12.4 89.37 11.224C90.3034 10.048 91.6474 9.46 93.402 9.46H93.99V13.324H92.87C91.638 13.324 90.686 13.66 90.014 14.332C89.342 14.9853 89.006 15.9373 89.006 17.188V25H84.526ZM103.839 25.196C102.289 25.196 101.039 25.0093 100.087 24.636C99.1347 24.244 98.4347 23.6 97.9867 22.704C97.5573 21.7893 97.3427 20.5573 97.3427 19.008V5.512H101.515V19.176C101.515 19.904 101.701 20.464 102.075 20.856C102.467 21.2293 103.017 21.416 103.727 21.416H105.995V25.196H103.839ZM95.0187 12.932V9.656H105.995V12.932H95.0187ZM109.039 31.076V27.268H112.231C112.717 27.268 113.127 27.2027 113.463 27.072C113.799 26.96 114.07 26.764 114.275 26.484C114.481 26.204 114.649 25.8213 114.779 25.336L118.559 9.656H122.815L118.531 26.232C118.233 27.4267 117.813 28.3787 117.271 29.088C116.749 29.7973 116.039 30.3013 115.143 30.6C114.266 30.9173 113.146 31.076 111.783 31.076H109.039ZM113.855 24.664V21.164H117.103V24.664H113.855ZM112.007 24.664L107.303 9.656H111.811L116.263 24.664H112.007ZM129.688 25V8.004H134.28V25H129.688ZM123.948 8.564V4.56H140.048V8.564H123.948ZM142.683 25V9.656H147.163V25H142.683ZM140.639 12.96V9.656H147.163V12.96H140.639ZM144.419 8.144C143.579 8.144 142.954 7.92933 142.543 7.5C142.151 7.052 141.955 6.492 141.955 5.82C141.955 5.12933 142.151 4.56933 142.543 4.14C142.954 3.692 143.579 3.468 144.419 3.468C145.259 3.468 145.875 3.692 146.267 4.14C146.678 4.56933 146.883 5.12933 146.883 5.82C146.883 6.492 146.678 7.052 146.267 7.5C145.875 7.92933 145.259 8.144 144.419 8.144ZM151.507 25V9.656H155.063V16.264H154.811C154.811 14.696 155.007 13.3893 155.399 12.344C155.791 11.2987 156.379 10.5147 157.163 9.992C157.947 9.45067 158.908 9.18 160.047 9.18H160.243C161.4 9.18 162.361 9.45067 163.127 9.992C163.911 10.5147 164.499 11.2987 164.891 12.344C165.301 13.3893 165.507 14.696 165.507 16.264H164.415C164.415 14.696 164.611 13.3893 165.003 12.344C165.413 11.2987 166.011 10.5147 166.795 9.992C167.579 9.45067 168.54 9.18 169.679 9.18H169.875C171.032 9.18 172.003 9.45067 172.787 9.992C173.589 10.5147 174.196 11.2987 174.607 12.344C175.017 13.3893 175.223 14.696 175.223 16.264V25H170.743V16.012C170.743 15.172 170.519 14.4907 170.071 13.968C169.641 13.4453 169.025 13.184 168.223 13.184C167.42 13.184 166.785 13.4547 166.319 13.996C165.852 14.5187 165.619 15.2187 165.619 16.096V25H161.111V16.012C161.111 15.172 160.887 14.4907 160.439 13.968C160.009 13.4453 159.403 13.184 158.619 13.184C157.797 13.184 157.153 13.4547 156.687 13.996C156.22 14.5187 155.987 15.2187 155.987 16.096V25H151.507ZM186.27 25.532C184.963 25.532 183.806 25.308 182.798 24.86C181.808 24.412 180.978 23.8147 180.306 23.068C179.652 22.3027 179.148 21.4533 178.794 20.52C178.458 19.568 178.29 18.5973 178.29 17.608V17.048C178.29 16.0213 178.458 15.0413 178.794 14.108C179.148 13.156 179.652 12.3067 180.306 11.56C180.959 10.8133 181.771 10.2253 182.742 9.796C183.731 9.348 184.851 9.124 186.102 9.124C187.744 9.124 189.126 9.49733 190.246 10.244C191.384 10.972 192.252 11.9333 192.85 13.128C193.447 14.304 193.746 15.592 193.746 16.992V18.504H180.166V15.956H191.03L189.574 17.132C189.574 16.2173 189.443 15.4333 189.182 14.78C188.92 14.1267 188.528 13.632 188.006 13.296C187.502 12.9413 186.867 12.764 186.102 12.764C185.318 12.764 184.655 12.9413 184.114 13.296C183.572 13.6507 183.162 14.1733 182.882 14.864C182.602 15.536 182.462 16.3667 182.462 17.356C182.462 18.2707 182.592 19.0733 182.854 19.764C183.115 20.436 183.526 20.9587 184.086 21.332C184.646 21.7053 185.374 21.892 186.27 21.892C187.091 21.892 187.763 21.7333 188.286 21.416C188.808 21.0987 189.163 20.7067 189.35 20.24H193.466C193.242 21.2667 192.803 22.1813 192.15 22.984C191.496 23.7867 190.675 24.412 189.686 24.86C188.696 25.308 187.558 25.532 186.27 25.532Z" fill="white"/>
</svg>
